# xmcd
#
# Track frame offsets:
#	150
#	17157
#	31293
#	47632
#	66048
#	81752
#	103602
#	117152
#	142904
#	154267
#	167804
#	183584
#	195277
#	210538
#	219192
#	230154
#
# Disc length: 3313 seconds
#
# Revision: 1
# Processed by: cddbd v1.5.2PL0 Copyright (c) Steve Scherf et al.
# Submitted via: EasyCDDAExtractor 12.0.4.1
#
DISCID=d40cef10
DTITLE=Monte Triana and his Orchestra - LA_SAMBA, SALASA, MAMBO - hits
DYEAR=2002
DGENRE=Blues
TTITLE0=Baila Me
TTITLE1=All My Loveing
TTITLE2=Volares
TTITLE3=Quero Saber
TTITLE4=Bamboleo
TTITLE5=Kalimba De Luna
TTITLE6=Borriquito
TTITLE7=Hotel California
TTITLE8=Achilipu
TTITLE9=No Se, No Se
TTITLE10=Amigo Conductor
TTITLE11=El Porompopmpero
TTITLE12=El Amor Es Una Droga
TTITLE13=Rumbero De Seda
TTITLE14=Perdido Amor
TTITLE15=Yeke Yeke
EXTD=
EXTT0=
EXTT1=
EXTT2=
EXTT3=
EXTT4=
EXTT5=
EXTT6=
EXTT7=
EXTT8=
EXTT9=
EXTT10=
EXTT11=
EXTT12=
EXTT13=
EXTT14=
EXTT15=
PLAYORDER=
